<?xml version="1.0" encoding="UTF-8"?>
<svg id="Layer_1" data-name="Layer 1" xmlns="http://www.w3.org/2000/svg" version="1.1" viewBox="0 0 80 80">
  <defs>
    <style>
      .cls-1 {
        fill: #231f20;
        stroke-width: 0px;
      }
    </style>
  </defs>
  <path class="cls-1" d="M0,11.71L11.71,0h3.9L0,15.61v-3.9ZM3.9,0h3.9L0,7.81v-3.9L3.9,0ZM7.81,11.71v3.9L0,23.42v-3.9l7.81-7.81ZM0,27.32l11.71-11.71h3.9L0,31.22v-3.9ZM0,35.13l7.81-7.81v3.9l-7.81,7.81v-3.9ZM11.71,31.22h3.9l-7.81,7.81h-3.9l7.81-7.81ZM19.52,0h3.9l-7.81,7.81h-3.9L19.52,0ZM19.52,15.61h3.9l-7.81,7.81h-3.9l7.81-7.81ZM19.52,31.22h3.9l-7.81,7.81h-3.9l7.81-7.81ZM23.42,3.9v3.9h-3.9l3.9-3.9ZM23.42,19.52v3.9h-3.9l3.9-3.9ZM23.42,35.13v3.9h-3.9l3.9-3.9ZM23.42,11.71l3.9-3.9h3.9l-7.81,7.81v-3.9ZM23.42,27.32l3.9-3.9h3.9l-7.81,7.81v-3.9ZM31.22,11.71v3.9h-3.9l3.9-3.9ZM31.22,27.32v3.9h-3.9l3.9-3.9Z"/>
  <path class="cls-1" d="M39.55,0h3.9l-7.81,7.81v-3.9l3.9-3.9ZM39.55,23.42h3.9l-7.81,7.81v-3.9l3.9-3.9ZM43.45,27.32v3.9l-7.81,7.81v-3.9l7.81-7.81ZM39.55,7.81l7.81-7.81h3.9l-7.81,7.81h-3.9ZM47.36,31.22h3.9l-7.81,7.81h-3.9l7.81-7.81ZM43.45,19.52l3.9-3.9h3.9l-7.81,7.81v-3.9ZM55.16,0h3.9l-7.81,7.81h-3.9l7.81-7.81ZM47.36,23.42l7.81-7.81h3.9l-7.81,7.81h-3.9ZM55.16,31.22h3.9l-7.81,7.81h-3.9l7.81-7.81ZM55.16,7.81l7.81-7.81h3.9l-7.81,7.81h-3.9ZM55.16,23.42l3.9-3.9v3.9h-3.9ZM62.97,31.22h3.9l-7.81,7.81h-3.9l7.81-7.81ZM66.87,3.9v3.9l-7.81,7.81v-3.9l7.81-7.81ZM62.97,15.61l3.9-3.9v3.9h-3.9ZM66.87,35.13v3.9h-3.9l3.9-3.9Z"/>
  <path class="cls-1" d="M3.9,48.78h3.9l-7.81,7.81v-3.9l3.9-3.9ZM7.81,52.68v3.9l-7.81,7.81v-3.9l7.81-7.81ZM0,68.29l7.81-7.81v3.9l-7.81,7.81v-3.9ZM3.9,72.19l3.9-3.9v3.9h-3.9ZM7.81,44.87l3.9-3.9h3.9l-7.81,7.81v-3.9ZM11.71,72.19h3.9l-7.81,7.81v-3.9l3.9-3.9ZM19.52,40.97h3.9l-7.81,7.81h-3.9l7.81-7.81ZM19.52,72.19h3.9l-7.81,7.81h-3.9l7.81-7.81ZM23.42,44.87v3.9h-3.9l3.9-3.9ZM23.42,76.1v3.9h-3.9l3.9-3.9ZM23.42,52.68l3.9-3.9h3.9l-7.81,7.81v-3.9ZM23.42,60.48l7.81-7.81v3.9l-7.81,7.81v-3.9ZM23.42,68.29l7.81-7.81v3.9l-7.81,7.81v-3.9ZM31.22,68.29v3.9h-3.9l3.9-3.9Z"/>
  <path class="cls-1" d="M35.65,52.68l11.71-11.71h3.9l-15.61,15.61v-3.9ZM39.55,40.97h3.9l-7.81,7.81v-3.9l3.9-3.9ZM43.45,52.68v3.9l-7.81,7.81v-3.9l7.81-7.81ZM35.65,68.29l11.71-11.71h3.9l-15.61,15.61v-3.9ZM35.65,76.1l7.81-7.81v3.9l-7.81,7.81v-3.9ZM43.45,76.1v3.9h-3.9l3.9-3.9ZM55.16,40.97h3.9l-7.81,7.81h-3.9l7.81-7.81ZM55.16,56.58h3.9l-7.81,7.81h-3.9l7.81-7.81ZM59.07,44.87v3.9h-3.9l3.9-3.9ZM59.07,60.48v3.9h-3.9l3.9-3.9ZM59.07,52.68l3.9-3.9h3.9l-7.81,7.81v-3.9ZM59.07,68.29l3.9-3.9h3.9l-7.81,7.81v-3.9ZM59.07,76.1l7.81-7.81v3.9l-7.81,7.81v-3.9ZM66.87,52.68v3.9h-3.9l3.9-3.9ZM66.87,76.1v3.9h-3.9l3.9-3.9Z"/>
</svg>